<?xml version="1.0" encoding="UTF-8"?>
<svg id="Layer_2" data-name="Layer 2" xmlns="http://www.w3.org/2000/svg" viewBox="0 0 146.54 146.74">
  <defs>
    <style>
      .cls-1 {
        fill: #231f20;
        stroke-width: 0px;
      }
    </style>
  </defs>
  <g id="Layer_1-2" data-name="Layer 1">
    <g>
      <circle class="cls-1" cx="75" cy="72.56" r="8.48"/>
      <path class="cls-1" d="M140.93,101.78c-.15-.24-.32-.48-.5-.7-.09-.13-.18-.26-.28-.39,0,0-.03.02-.05.03-1.19-1.24-2.86-2.02-4.72-2.02-3.62,0-6.55,2.93-6.55,6.55,0,1.49.5,2.86,1.34,3.96,0,0,0,0-.01.01,12.71,31.04-42.4,27.52-79.38-12.68,6.67,8.66,13.25,15.86,19.64,21.8-5.36,3.62-10.92,5.67-16.7,6.16-8.62.72-16.21-2.19-22.76-8.75-6.51-6.51-9.41-14.08-8.71-22.72.7-8.64,4.89-16.8,12.57-24.48l33.16-33.16c7.73-7.73,15.9-11.93,24.52-12.61,8.61-.67,16.18,2.24,22.69,8.75,6.55,6.55,9.48,14.13,8.79,22.72-.7,8.59-4.91,16.75-12.64,24.49l-33.16,33.16c-.51.51-1.02,1-1.53,1.48,7.34,3.7,15.1,6.48,22.06,7.99l27.09-27.09c8.41-8.41,14.22-17.25,17.43-26.55,3.21-9.29,3.79-18.41,1.74-27.37-2.05-8.95-6.76-17.12-14.13-24.48-7.37-7.37-15.53-12.08-24.48-14.13-8.96-2.05-18.08-1.47-27.37,1.74-5.02,1.74-9.91,4.24-14.67,7.49C21.01-16.86-8.65,13.88,9.86,40.2c.15.24.32.48.5.7.09.13.18.26.28.38,0,0,.03-.02.05-.03,1.19,1.24,2.86,2.02,4.72,2.02,3.62,0,6.55-2.93,6.55-6.55,0-1.49-.5-2.86-1.34-3.96,0,0,0,0,.01-.01C12.45,12.77,32.35,7.11,57.43,16.31c-1.68,1.45-3.34,2.99-4.99,4.64L20.37,53.02c-8.35,8.35-14.15,17.19-17.39,26.51-3.24,9.32-3.84,18.45-1.78,27.41,2.05,8.95,6.76,17.11,14.13,24.48,7.37,7.37,15.53,12.08,24.48,14.13,8.95,2.05,18.09,1.46,27.41-1.78,7.14-2.48,13.99-6.49,20.57-11.98,42.59,26.42,71.48-3.95,53.15-30Z"/>
    </g>
  </g>
</svg>