<?xml version="1.0" encoding="UTF-8"?>
<svg id="Layer_2" data-name="Layer 2" xmlns="http://www.w3.org/2000/svg" viewBox="0 0 388.57 147.44">
  <defs>
    <style>
      .cls-1 {
        fill: #231f20;
        stroke-width: 0px;
      }
    </style>
  </defs>
  <g id="Layer_1-2" data-name="Layer 1">
    <g>
      <g>
        <circle class="cls-1" cx="75" cy="72.56" r="8.48"/>
        <path class="cls-1" d="M140.93,101.78c-.15-.24-.32-.48-.5-.7-.09-.13-.18-.26-.28-.39,0,0-.03.02-.05.03-1.19-1.24-2.86-2.02-4.72-2.02-3.62,0-6.55,2.93-6.55,6.55,0,1.49.5,2.86,1.34,3.96,0,0,0,0-.01.01,12.71,31.04-42.4,27.52-79.38-12.68,6.67,8.66,13.25,15.86,19.64,21.8-5.36,3.62-10.92,5.67-16.7,6.16-8.62.72-16.21-2.19-22.76-8.75-6.51-6.51-9.41-14.08-8.71-22.72.7-8.64,4.89-16.8,12.57-24.48l33.16-33.16c7.73-7.73,15.9-11.93,24.52-12.61,8.61-.67,16.18,2.24,22.69,8.75,6.55,6.55,9.48,14.13,8.79,22.72-.7,8.59-4.91,16.75-12.64,24.49l-33.16,33.16c-.51.51-1.02,1-1.53,1.48,7.34,3.7,15.1,6.48,22.06,7.99l27.09-27.09c8.41-8.41,14.22-17.25,17.43-26.55,3.21-9.29,3.79-18.41,1.74-27.37-2.05-8.95-6.76-17.12-14.13-24.48-7.37-7.37-15.53-12.08-24.48-14.13-8.96-2.05-18.08-1.47-27.37,1.74-5.02,1.74-9.91,4.24-14.67,7.49C21.01-16.86-8.65,13.88,9.86,40.2c.15.24.32.48.5.7.09.13.18.26.28.38,0,0,.03-.02.05-.03,1.19,1.24,2.86,2.02,4.72,2.02,3.62,0,6.55-2.93,6.55-6.55,0-1.49-.5-2.86-1.34-3.96,0,0,0,0,.01-.01C12.45,12.77,32.35,7.11,57.43,16.31c-1.68,1.45-3.34,2.99-4.99,4.64L20.37,53.02c-8.35,8.35-14.15,17.19-17.39,26.51-3.24,9.32-3.84,18.45-1.78,27.41,2.05,8.95,6.76,17.11,14.13,24.48,7.37,7.37,15.53,12.08,24.48,14.13,8.95,2.05,18.09,1.46,27.41-1.78,7.14-2.48,13.99-6.49,20.57-11.98,42.59,26.42,71.48-3.95,53.15-30Z"/>
      </g>
      <g>
        <path class="cls-1" d="M173.86,28.55v-12.04c0-2.35.23-4.34.69-5.95.46-1.61,1.21-2.91,2.26-3.9,1.05-.99,2.42-1.7,4.11-2.15,1.69-.44,3.78-.66,6.25-.66h4.47c4.96,0,8.42.93,10.38,2.8v-.03c1.95,1.86,2.92,5.16,2.92,9.88v12.04c0,2.34-.22,4.31-.67,5.92s-1.19,2.92-2.23,3.91c-1.04,1-2.41,1.72-4.11,2.16-1.7.44-3.8.66-6.28.66h-4.47c-2.49,0-4.58-.22-6.28-.66-1.7-.44-3.07-1.16-4.11-2.15-1.04-.99-1.78-2.29-2.23-3.9s-.67-3.59-.67-5.95ZM178.91,27.6c0,1.18.03,2.17.08,2.97.06.8.15,1.47.28,2.01.13.54.31.99.54,1.35s.51.69.83.98c.36.33.73.6,1.11.81.38.21.85.38,1.41.5.55.12,1.24.21,2.06.26s1.84.07,3.06.07h2.21c1.24,0,2.28-.02,3.11-.07s1.53-.13,2.09-.26c.56-.12,1.03-.29,1.41-.5.38-.21.73-.48,1.08-.81.34-.29.62-.6.83-.93.21-.33.38-.76.51-1.29.13-.53.22-1.2.27-2.01s.07-1.83.07-3.08v-10.1c0-1.26-.03-2.3-.08-3.12-.06-.82-.16-1.5-.29-2.04-.14-.54-.32-.97-.54-1.3-.22-.33-.49-.64-.82-.93-.34-.29-.7-.54-1.07-.75s-.83-.37-1.38-.49c-.55-.12-1.25-.21-2.08-.27-.83-.06-1.87-.09-3.11-.09h-2.21c-1.26,0-2.29.03-3.1.09-.81.06-1.49.15-2.05.27-.56.12-1.02.29-1.38.5-.37.21-.74.47-1.11.79-.33.28-.6.59-.83.94s-.41.8-.54,1.34c-.13.54-.22,1.22-.28,2.04-.06.82-.08,1.83-.08,3.04v10.08Z"/>
        <path class="cls-1" d="M211.93,50.38V14.69h4.44v2.58c.74-1.03,1.71-1.77,2.92-2.23s2.74-.69,4.57-.69,3.49.19,4.8.58c1.31.38,2.36.99,3.17,1.83.81.83,1.39,1.91,1.74,3.23.35,1.32.53,2.91.53,4.77v5.96c0,1.88-.18,3.48-.54,4.79-.36,1.32-.94,2.39-1.75,3.22-.81.83-1.87,1.44-3.17,1.82-1.31.38-2.9.56-4.78.56-1.74,0-3.2-.24-4.4-.71-1.2-.47-2.19-1.15-2.97-2.04v12.02h-4.56ZM216.49,29.78c0,2.45.57,4.24,1.72,5.35,1.15,1.11,2.98,1.67,5.5,1.67,2.28,0,3.78-.38,4.5-1.15.74-.79,1.11-2.71,1.11-5.76v-4.29c0-1.52-.08-2.74-.23-3.66-.16-.92-.44-1.61-.86-2.1s-.99-.8-1.72-.94c-.73-.15-1.66-.22-2.79-.22-2.52,0-4.36.56-5.5,1.67s-1.72,2.89-1.72,5.35v4.1Z"/>
        <path class="cls-1" d="M239.67,30.71v-5.96c0-1.93.19-3.56.56-4.89.38-1.33.98-2.4,1.81-3.21s1.92-1.39,3.26-1.75c1.34-.36,2.97-.54,4.9-.54h1.74c1.96,0,3.61.18,4.96.55,1.35.37,2.44.96,3.27,1.79.83.83,1.43,1.9,1.8,3.21.37,1.32.55,2.93.55,4.84v4.27l-18.05.02c-.02.1-.03.21-.03.34v1.33c0,1.26.07,2.28.22,3.07.15.79.43,1.4.86,1.85.43.45,1.01.76,1.75.92.74.16,1.72.25,2.93.25h1.74c1.08,0,1.97-.06,2.67-.18s1.27-.34,1.71-.66c.43-.32.75-.76.96-1.32.2-.56.35-1.3.43-2.2h4.78c-.11,1.59-.39,2.93-.83,4.03-.44,1.1-1.08,2-1.92,2.69-.84.69-1.9,1.19-3.17,1.5-1.27.31-2.8.47-4.58.47h-1.74c-1.94,0-3.59-.18-4.93-.54-1.34-.36-2.43-.95-3.27-1.77s-1.45-1.89-1.83-3.21c-.38-1.33-.56-2.95-.56-4.88ZM244.5,24.73h13.24v-.49c0-1.14-.08-2.07-.25-2.78-.16-.72-.46-1.28-.88-1.7-.43-.42-1.01-.7-1.77-.85-.75-.16-1.72-.23-2.89-.23h-1.74c-1.15,0-2.08.07-2.82.22-.74.15-1.32.42-1.75.83-.43.41-.73.97-.9,1.7-.16.72-.25,1.67-.25,2.82v.49Z"/>
        <path class="cls-1" d="M269.07,40.77V14.69h4.42v2.26c1.47-1.73,4.05-2.6,7.74-2.6,1.75,0,3.23.17,4.44.51,1.21.34,2.19.89,2.94,1.64.75.75,1.29,1.73,1.62,2.93.33,1.2.5,2.66.5,4.38v16.95h-4.78v-16.16c0-1.23-.07-2.22-.21-2.99s-.4-1.37-.79-1.8-.91-.73-1.58-.9c-.67-.16-1.54-.25-2.61-.25-2.46,0-4.26.56-5.41,1.69-1.15,1.13-1.72,2.9-1.72,5.32v15.08h-4.56Z"/>
        <path class="cls-1" d="M173.86,77.08v-12.04c0-2.34.23-4.31.69-5.92.46-1.61,1.21-2.92,2.25-3.91,1.04-1,2.4-1.72,4.1-2.16,1.69-.44,3.78-.66,6.27-.66h4.49c4.94,0,8.39.93,10.36,2.8v-.03c1.95,1.86,2.93,5.16,2.93,9.88v12.04c0,1.03-.03,1.95-.08,2.75-.06.8-.15,1.52-.28,2.15-.13.63-.3,1.19-.51,1.67-.21.48-.47.91-.78,1.29l2.18,2.16-3.26,3.33-2.27-2.31c-.36.31-.76.57-1.21.77-.45.2-.99.37-1.63.49-.64.12-1.4.21-2.27.27-.88.06-1.93.09-3.15.09h-4.49c-2.5,0-4.61-.22-6.31-.67-1.7-.45-3.07-1.17-4.11-2.17s-1.78-2.3-2.22-3.91c-.44-1.61-.66-3.58-.66-5.9ZM178.91,76.12c0,1.18.03,2.16.08,2.96.06.79.15,1.46.28,2.01s.31,1,.54,1.36.51.69.83.98c.38.31.75.57,1.11.79.37.21.83.38,1.37.5.55.12,1.23.21,2.05.27.82.06,1.86.09,3.14.09h3.06c1.44,0,2.57-.03,3.39-.09.82-.06,1.44-.13,1.85-.23-1.08-1.05-2.18-2.14-3.31-3.27s-2.21-2.22-3.23-3.25l3.16-3.24,6.44,6.35c.07-.62.11-1.3.15-2.05.03-.74.05-1.53.05-2.37v-10.91c0-1.28-.03-2.33-.08-3.15-.06-.83-.16-1.51-.29-2.05-.14-.54-.32-.97-.54-1.29-.22-.32-.49-.62-.82-.9-.34-.29-.7-.54-1.07-.75s-.83-.37-1.38-.49c-.55-.12-1.25-.21-2.07-.27-.83-.06-1.87-.09-3.12-.09h-2.18c-1.26,0-2.29.02-3.1.07-.81.05-1.49.13-2.03.26-.55.12-1.01.29-1.38.5-.38.21-.76.48-1.15.81-.33.28-.6.58-.82.92-.22.33-.4.77-.54,1.31-.14.54-.24,1.22-.29,2.04-.06.82-.08,1.85-.08,3.09v10.08Z"/>
        <path class="cls-1" d="M211.61,80.17v-16.95h4.56v16.16c0,1.23.07,2.23.22,3s.41,1.38.8,1.82c.38.43.92.73,1.6.88s1.56.23,2.64.23c2.46,0,4.25-.56,5.37-1.68s1.68-2.9,1.68-5.33v-15.08h4.78v26.07h-4.59v-2.23c-.75.9-1.77,1.55-3.05,1.96-1.28.41-2.86.61-4.74.61-1.7,0-3.14-.17-4.33-.52-1.18-.34-2.14-.89-2.88-1.64-.74-.75-1.27-1.73-1.59-2.93-.32-1.2-.49-2.66-.49-4.38Z"/>
        <path class="cls-1" d="M239.57,81.18c0-1.83.16-3.29.49-4.39.33-1.1.89-1.95,1.67-2.54s1.84-.99,3.15-1.19,2.95-.29,4.9-.29,3.48.13,4.65.41c1.17.27,2.1.69,2.79,1.26v-3.12c0-1-.07-1.79-.22-2.37-.15-.58-.45-1.02-.92-1.32-.47-.3-1.14-.5-2.02-.59-.88-.09-2.06-.13-3.55-.13-1.04,0-1.91.03-2.58.1s-1.22.22-1.63.47-.69.6-.86,1.05c-.16.46-.25,1.08-.27,1.86h-4.56v-1.05c0-1.14.17-2.12.52-2.94.35-.82.9-1.49,1.67-2.01s1.76-.9,2.99-1.14c1.23-.24,2.73-.36,4.5-.36,1.36,0,2.55.02,3.56.07,1.01.05,1.89.13,2.62.25.74.12,1.36.27,1.87.47.51.2.93.43,1.28.71.4.33.75.66,1.02,1.01.28.34.5.76.67,1.25.17.49.29,1.1.37,1.84.07.74.11,1.66.11,2.77v18.05h-4.22v-1.76c-.75.74-1.73,1.28-2.93,1.61-1.2.33-2.75.5-4.66.5-2.07,0-3.77-.14-5.11-.42-1.34-.28-2.4-.75-3.19-1.4-.79-.66-1.34-1.53-1.65-2.61-.31-1.08-.47-2.43-.47-4.03ZM244.45,80.74c0,.93.08,1.68.25,2.26s.47,1.03.92,1.35c.45.33,1.06.54,1.85.66.78.11,1.79.17,3.01.17,2.22,0,3.9-.24,5.04-.72,1.14-.48,1.71-1.17,1.71-2.06v-2.63c0-1.02-.57-1.78-1.7-2.26-1.13-.48-2.95-.72-5.45-.72-1.09,0-2,.05-2.73.15s-1.3.29-1.73.57c-.42.28-.73.69-.91,1.21-.18.52-.27,1.19-.27,2.02Z"/>
        <path class="cls-1" d="M269.17,89.29v-26.07h4.42v2.26c1.47-1.73,4.05-2.6,7.74-2.6,1.75,0,3.23.17,4.44.51,1.21.34,2.19.89,2.94,1.64.75.75,1.29,1.73,1.62,2.93.33,1.2.5,2.66.5,4.38v16.95h-4.78v-16.16c0-1.23-.07-2.22-.21-2.99s-.4-1.37-.79-1.8-.91-.73-1.58-.9c-.67-.16-1.54-.25-2.61-.25-2.46,0-4.26.56-5.41,1.69-1.15,1.13-1.72,2.9-1.72,5.32v15.08h-4.56Z"/>
        <path class="cls-1" d="M295.64,67.34v-4.12h2.97v-5.67h4.78v5.67h12.21v4.12h-12.21v13.37c0,1.88.28,3.12.83,3.73v-.02c.55.61,1.66.91,3.33.91.86,0,1.56-.07,2.1-.21s.95-.38,1.25-.72c.29-.34.49-.81.6-1.41.11-.6.16-1.35.16-2.27v-1.23h4.78v.69c0,1.83-.14,3.36-.42,4.57-.28,1.22-.78,2.19-1.49,2.91-.72.72-1.69,1.23-2.92,1.53-1.23.3-2.81.45-4.74.45-1.54,0-2.83-.16-3.88-.49-1.05-.33-1.9-.86-2.55-1.61-.65-.74-1.12-1.72-1.4-2.92-.28-1.2-.42-2.69-.42-4.45v-12.83h-2.97Z"/>
        <path class="cls-1" d="M322.64,80.17v-16.95h4.56v16.16c0,1.23.07,2.23.22,3s.41,1.38.8,1.82c.38.43.92.73,1.6.88s1.56.23,2.64.23c2.46,0,4.25-.56,5.37-1.68s1.68-2.9,1.68-5.33v-15.08h4.78v26.07h-4.59v-2.23c-.75.9-1.77,1.55-3.05,1.96-1.28.41-2.86.61-4.74.61-1.7,0-3.14-.17-4.33-.52-1.18-.34-2.14-.89-2.88-1.64-.74-.75-1.27-1.73-1.59-2.93-.32-1.2-.49-2.66-.49-4.38Z"/>
        <path class="cls-1" d="M352.59,89.29v-26.07h4.46v2.13c1.41-1.65,3.76-2.48,7.05-2.48,2.03,0,3.66.29,4.89.86s2.19,1.47,2.87,2.7c.77-1.28,1.76-2.19,2.96-2.73s2.74-.82,4.61-.82c1.7,0,3.13.16,4.3.49s2.11.86,2.83,1.61,1.24,1.72,1.54,2.93c.31,1.21.46,2.69.46,4.44v16.95h-4.56v-15.77c0-1.29-.07-2.35-.2-3.18-.13-.83-.38-1.47-.74-1.94-.36-.47-.86-.78-1.49-.96s-1.45-.26-2.45-.26c-2.16,0-3.74.56-4.72,1.67s-1.47,2.89-1.47,5.35v15.08h-4.56v-17.49c0-.98-.08-1.77-.23-2.37-.16-.6-.41-1.06-.77-1.4-.36-.33-.85-.56-1.46-.67s-1.37-.17-2.27-.17c-2.23,0-3.87.57-4.92,1.71-1.05,1.14-1.57,2.91-1.57,5.31v15.08h-4.56Z"/>
        <path class="cls-1" d="M174.99,137.82v-36.47h17.63c2.31,0,4.26.22,5.85.66,1.59.44,2.89,1.15,3.89,2.12s1.72,2.24,2.16,3.81c.44,1.57.66,3.48.66,5.74v11.72c0,2.26-.22,4.17-.67,5.75-.45,1.58-1.17,2.86-2.16,3.85-.99.99-2.28,1.71-3.88,2.15-1.59.44-3.54.66-5.85.66h-17.63ZM179.87,133.36h12.12c1.68,0,3.05-.12,4.11-.37s1.88-.67,2.48-1.26c.6-.6,1.01-1.4,1.23-2.42s.33-2.3.33-3.85v-11.48c0-1.68-.14-3.06-.42-4.13-.28-1.07-.68-1.88-1.2-2.42-1.06-1.08-3.24-1.62-6.52-1.62h-12.12v27.54Z"/>
        <path class="cls-1" d="M211.07,127.77v-5.96c0-1.93.19-3.56.56-4.89.38-1.33.98-2.4,1.81-3.21s1.92-1.39,3.26-1.75c1.34-.36,2.97-.54,4.9-.54h1.74c1.96,0,3.61.18,4.96.55,1.35.37,2.44.96,3.27,1.79.83.83,1.43,1.9,1.8,3.21.37,1.32.55,2.93.55,4.84v4.27l-18.05.02c-.02.1-.03.21-.03.34v1.33c0,1.26.07,2.28.22,3.07.15.79.43,1.4.86,1.85.43.45,1.01.76,1.75.92.74.16,1.72.25,2.93.25h1.74c1.08,0,1.97-.06,2.67-.18s1.27-.34,1.71-.66c.43-.32.75-.76.96-1.32.2-.56.35-1.3.43-2.2h4.78c-.11,1.59-.39,2.93-.83,4.03-.44,1.1-1.08,2-1.92,2.69-.84.69-1.9,1.19-3.17,1.5-1.27.31-2.8.47-4.58.47h-1.74c-1.94,0-3.59-.18-4.93-.54-1.34-.36-2.43-.95-3.27-1.77s-1.45-1.89-1.83-3.21c-.38-1.33-.56-2.95-.56-4.88ZM215.9,121.78h13.24v-.49c0-1.14-.08-2.07-.25-2.78-.16-.72-.46-1.28-.88-1.7-.43-.42-1.01-.7-1.77-.85-.75-.16-1.72-.23-2.89-.23h-1.74c-1.15,0-2.08.07-2.82.22-.74.15-1.32.42-1.75.83-.43.41-.73.97-.9,1.7-.16.72-.25,1.67-.25,2.82v.49Z"/>
        <path class="cls-1" d="M239.54,130.55v-1.13h4.78v1.03c0,1.38.4,2.31,1.2,2.8h-.02c.87.53,2.7.79,5.51.79,3.1,0,4.99-.26,5.66-.79.62-.49.93-1.5.93-3.03s-.26-2.49-.79-2.93c-.23-.18-.54-.33-.92-.46s-.88-.21-1.5-.25c-.62-.04-1.28-.09-1.99-.15-.71-.06-1.55-.12-2.53-.2-1.35-.07-2.8-.15-4.36-.26s-2.51-.28-2.87-.51v.02c-.52-.28-.97-.61-1.34-.99s-.67-.84-.9-1.36c-.23-.52-.4-1.13-.5-1.81-.11-.68-.16-1.46-.16-2.34,0-2.94.78-4.95,2.34-6.02,1.49-1.04,4.71-1.57,9.64-1.57,3.88,0,6.51.5,7.91,1.5h-.02c1.52,1.03,2.28,2.97,2.28,5.81h-4.78v-.71c0-.47-.09-.87-.28-1.19-.19-.32-.53-.57-1.03-.76-.5-.19-1.18-.32-2.04-.4-.87-.08-1.97-.12-3.33-.12-1.27,0-2.3.04-3.07.11-.78.07-1.38.24-1.81.48-.43.25-.72.6-.87,1.06-.15.46-.22,1.08-.22,1.85,0,.82.05,1.43.14,1.82.09.39.29.65.59.78v-.02c.33.21,1.76.42,4.3.62,5.82.46,9.02.8,9.59,1.03.63.31,1.16.66,1.6,1.06.44.4.79.87,1.06,1.4.27.54.46,1.15.57,1.85.12.7.17,1.5.17,2.41,0,.96-.06,1.8-.17,2.51s-.3,1.34-.56,1.9c-.26.56-.61,1.05-1.04,1.48-.43.43-.97.84-1.61,1.24-.57.36-1.5.62-2.79.8-1.29.17-3.03.26-5.24.26-4.58,0-7.63-.55-9.18-1.64-1.56-1.11-2.34-3.1-2.34-5.98Z"/>
        <path class="cls-1" d="M269.54,106.5v-5.15h4.56v5.15h-4.56ZM269.54,137.82v-26.07h4.56v26.07h-4.56Z"/>
        <path class="cls-1" d="M281.19,138.78h4.78c.1.93.26,1.67.48,2.23.22.56.54,1,.96,1.31s.96.52,1.63.63c.67.11,1.51.16,2.52.16h1.67c1.01,0,1.87-.08,2.58-.23s1.29-.4,1.75-.73c.46-.33.79-.76.99-1.28s.31-1.15.31-1.88v-3.58c-.78.88-1.77,1.56-2.96,2.04-1.19.47-2.65.71-4.38.71-1.89,0-3.48-.19-4.79-.56s-2.36-.98-3.18-1.82c-.81-.83-1.4-1.91-1.76-3.22s-.54-2.92-.54-4.79v-5.96c0-1.88.18-3.48.54-4.79s.95-2.39,1.76-3.23,1.87-1.44,3.18-1.82c1.3-.38,2.9-.56,4.79-.56s3.35.23,4.55.69c1.21.46,2.18,1.2,2.91,2.23v-2.58h4.44v25.31c0,1.91-.18,3.53-.54,4.84-.36,1.32-.95,2.39-1.76,3.21-.82.83-1.88,1.42-3.18,1.78-1.31.36-2.9.54-4.77.54h-1.71c-1.7,0-3.16-.15-4.39-.44-1.23-.29-2.26-.78-3.1-1.46-.83-.68-1.47-1.57-1.92-2.67-.45-1.1-.73-2.46-.84-4.08ZM286.02,126.93c0,3.04.37,4.95,1.1,5.74.73.78,2.24,1.18,4.53,1.18,2.51,0,4.34-.56,5.48-1.67,1.14-1.11,1.71-2.89,1.71-5.35v-4.1c0-2.45-.57-4.23-1.71-5.35-1.14-1.11-2.97-1.67-5.48-1.67-2.27,0-3.78.4-4.53,1.2-.73.78-1.1,2.69-1.1,5.71v4.29Z"/>
        <path class="cls-1" d="M311.04,137.82v-26.07h4.42v2.26c1.47-1.73,4.05-2.6,7.74-2.6,1.75,0,3.23.17,4.44.51,1.21.34,2.19.89,2.94,1.64.75.75,1.29,1.73,1.62,2.93.33,1.2.5,2.66.5,4.38v16.95h-4.78v-16.16c0-1.23-.07-2.22-.21-2.99s-.4-1.37-.79-1.8-.91-.73-1.58-.9c-.67-.16-1.54-.25-2.61-.25-2.46,0-4.26.56-5.41,1.69-1.15,1.13-1.72,2.9-1.72,5.32v15.08h-4.56Z"/>
      </g>
    </g>
  </g>
</svg>